<svg xmlns="http://www.w3.org/2000/svg" width="155" height="46" viewBox="0 0 155 46"><g transform="translate(-605.855 -1935.299)"><g transform="translate(606.008 1935.683)"><g transform="translate(-0.153 -0.384)" fill="#fff" stroke="#00ca00" stroke-width="2"><rect width="155" height="46" rx="5" stroke="none"/><rect x="1" y="1" width="153" height="44" rx="4" fill="none"/></g><circle cx="8" cy="8" r="8" transform="translate(13.847 14.616)" fill="#00ca00"/><path d="M1.326,5.437H6.033c4.375,0,7.319-2.654,7.319-7.3,0-4.6-2.944-7.278-7.319-7.278H1.326ZM2.757,4.152V-7.853H5.888c3.566,0,5.971,2.115,5.971,5.992,0,3.9-2.384,6.013-5.971,6.013ZM16.42-7.377h1.472V-9.139H16.42Zm.041,12.814h1.41V-4.992h-1.41ZM20.63,4.172a5.313,5.313,0,0,0,3.857,1.514c2.094,0,3.566-1.223,3.566-2.924,0-3.442-5.619-2.82-5.619-5.121,0-1.161,1.016-1.617,2.073-1.617a3.7,3.7,0,0,1,2.613.954L27.762-4.1a4.387,4.387,0,0,0-3.214-1.14c-1.887,0-3.566,1.016-3.566,2.882,0,3.4,5.619,2.841,5.619,5.121,0,1.1-.975,1.659-2.094,1.659A4.475,4.475,0,0,1,21.4,3.156ZM30.872,9.584h1.41V4.608c0-.539-.041-.912-.041-.912h.041A3.766,3.766,0,0,0,35.7,5.686c2.7,0,4.665-2.156,4.665-5.453,0-3.235-1.742-5.474-4.541-5.474A3.786,3.786,0,0,0,32.22-3.168h-.041a7.7,7.7,0,0,0,.041-.809V-4.992H30.872ZM32.241.254c0-2.965,1.638-4.209,3.38-4.209,1.949,0,3.3,1.638,3.3,4.188,0,2.654-1.514,4.209-3.359,4.209C33.4,4.442,32.241,2.348,32.241.254ZM42.525.171a5.515,5.515,0,1,0,11.031,0,5.516,5.516,0,0,0-11.031,0Zm1.451,0a4.064,4.064,0,1,1,8.128,0,4.068,4.068,0,1,1-8.128,0ZM56.4,5.437h1.41v-5a5.157,5.157,0,0,1,.166-1.41,3.964,3.964,0,0,1,3.794-2.944c2.011,0,2.26,1.451,2.26,3.089V5.437h1.41V-1.2c0-2.571-.912-4.043-3.483-4.043a4.44,4.44,0,0,0-4.168,2.633h-.041s.041-.373.041-.829V-4.992H56.4ZM68.857-7.377h1.472V-9.139H68.857ZM68.9,5.437h1.41V-4.992H68.9Zm5.018,0h1.368V4.5a8.055,8.055,0,0,0-.041-.85h.041a3.8,3.8,0,0,0,3.421,2.032c2.737,0,4.707-2.156,4.707-5.453,0-3.235-1.742-5.474-4.541-5.474A3.777,3.777,0,0,0,75.326-3.23h-.041s.041-.373.041-.85V-9.139h-1.41ZM75.285.254c0-2.965,1.638-4.209,3.38-4.209,1.949,0,3.3,1.638,3.3,4.188,0,2.654-1.514,4.209-3.359,4.209C76.363,4.442,75.285,2.348,75.285.254ZM86.233,2.97c0,2.281,1.534,2.55,2.405,2.55a3.569,3.569,0,0,0,.518-.041V4.214a3.2,3.2,0,0,1-.352.021c-.539,0-1.161-.207-1.161-1.576v-11.8h-1.41ZM90.939.233a5.272,5.272,0,0,0,5.453,5.453,5.977,5.977,0,0,0,3.857-1.451l-.643-1.078a4.848,4.848,0,0,1-3.172,1.265A3.927,3.927,0,0,1,92.391.3h8s.041-.477.041-.726c0-2.592-1.472-4.81-4.354-4.81C93.261-5.241,90.939-3.188,90.939.233Zm1.514-1.1A3.536,3.536,0,0,1,96.04-4.059c1.555,0,2.882,1.016,2.965,3.193Z" transform="translate(37.465 23.78)" fill="#00ca00"/></g></g></svg>